<svg width="48" height="48" viewBox="0 0 48 48" fill="none" xmlns="http://www.w3.org/2000/svg">
<path d="M27.0749 23.6554C27.0749 31.1968 21.0139 37.3103 13.5377 37.3103C6.06146 37.3103 0 31.1955 0 23.6554C0 16.1153 6.061 10 13.5377 10C21.0143 10 27.0749 16.114 27.0749 23.6554Z" fill="white"/>
<path d="M41.5377 23.8555C41.5377 30.9541 38.5072 36.711 34.7688 36.711C31.0305 36.711 28 30.9541 28 23.8555C28 16.7569 31.03 11 34.7684 11C38.5067 11 41.5372 16.755 41.5372 23.8555" fill="white"/>
<path d="M48 23.6552C48 30.0138 46.9344 35.1717 45.6194 35.1717C44.3045 35.1717 43.2393 30.0152 43.2393 23.6552C43.2393 17.2952 44.3049 12.1387 45.6194 12.1387C46.9339 12.1387 48 17.2947 48 23.6552Z" fill="white"/>
</svg>
