<svg width="27" height="22" viewBox="0 0 27 22" fill="none" xmlns="http://www.w3.org/2000/svg">
<path d="M26.7101 2.71882C25.7279 3.15407 24.6727 3.44816 23.5634 3.58108C24.708 2.89621 25.5643 1.81829 25.9726 0.548462C24.8972 1.18721 23.7203 1.63681 22.4929 1.87773C21.6676 0.996491 20.5744 0.412389 19.3831 0.216113C18.1917 0.019837 16.9689 0.222368 15.9045 0.792263C14.8401 1.36216 13.9936 2.26753 13.4964 3.36782C12.9993 4.4681 12.8793 5.70175 13.1551 6.87721C10.9761 6.76781 8.84452 6.20146 6.8986 5.21492C4.95268 4.22838 3.23594 2.8437 1.8598 1.15075C1.38927 1.96243 1.11871 2.90351 1.11871 3.90576C1.11818 4.80801 1.34037 5.69644 1.76555 6.49223C2.19074 7.28802 2.80578 7.96655 3.5561 8.46763C2.68593 8.43994 1.83495 8.20482 1.07401 7.78182V7.8524C1.07392 9.11785 1.51164 10.3443 2.31291 11.3238C3.11418 12.3032 4.22964 12.9753 5.47002 13.226C4.66279 13.4444 3.81647 13.4766 2.99498 13.3201C3.34494 14.4089 4.02663 15.3611 4.94462 16.0432C5.86261 16.7254 6.97094 17.1034 8.11444 17.1244C6.17327 18.6482 3.77594 19.4748 1.3081 19.4712C0.870945 19.4713 0.434162 19.4458 0 19.3947C2.505 21.0053 5.42101 21.8601 8.39912 21.8568C18.4804 21.8568 23.9916 13.5071 23.9916 6.26551C23.9916 6.03024 23.9857 5.79262 23.9751 5.55735C25.0471 4.7821 25.9725 3.82211 26.7078 2.72235L26.7101 2.71882Z" fill="#959595"/>
</svg>
